<?xml version="1.0" encoding="UTF-8"?>
<svg id="Layer_1" data-name="Layer 1" xmlns="http://www.w3.org/2000/svg" xmlns:xlink="http://www.w3.org/1999/xlink" viewBox="0 0 955.65 258.06">
  <defs>
    <style>
      .cls-1, .cls-2 {
        fill: #fff;
      }

      .cls-3 {
        letter-spacing: -.02em;
      }

      .cls-2 {
        font-size: 187.91px;
      }

      .cls-2, .cls-4 {
        font-family: Lato-Bold, Lato;
        font-weight: 700;
      }

      .cls-5 {
        letter-spacing: -.02em;
      }

      .cls-4 {
        font-size: 121.82px;
      }

      .cls-6 {
        fill: url(#linear-gradient);
      }
    </style>
    <linearGradient id="linear-gradient" x1="0" y1="113.32" x2="226.64" y2="113.32" gradientUnits="userSpaceOnUse">
      <stop offset="0" stop-color="#245fa5"/>
      <stop offset="1" stop-color="#1b7bae"/>
    </linearGradient>
  </defs>
  <circle class="cls-6" cx="113.32" cy="113.32" r="113.32"/>
  <text class="cls-2" transform="translate(65.39 204.5)"><tspan x="0" y="0">J</tspan></text>
  <text class="cls-4" transform="translate(226.64 148.43)"><tspan x="0" y="0">Cinema </tspan><tspan class="cls-5" x="438.72" y="0">P</tspan><tspan x="512.24" y="0">art</tspan><tspan class="cls-3" x="664.81" y="0">y</tspan></text>
  <path class="cls-1" d="m106.83,62.56h-1.11c-.09-.03-.17-.06-.26-.08-.96-.22-1.68-.78-2.17-1.63-.56-.98-.71-2.05-.71-3.15,0-10.24,0-20.47.01-30.71,0-.73.1-1.47.3-2.18.5-1.82,1.84-2.78,3.68-2.67,1.02.06,1.93.47,2.8.97,8.92,5.12,17.85,10.23,26.76,15.36.61.35,1.19.78,1.7,1.27,1.6,1.54,1.61,3.65.01,5.19-.53.51-1.15.96-1.8,1.33-8.31,4.78-16.63,9.55-24.95,14.32-1.36.78-2.67,1.68-4.26,1.97Z"/>
</svg>